<svg xmlns="http://www.w3.org/2000/svg" viewBox="0 0 200 200">
  <rect width="200" height="200" fill="#0f0f0f"/>

  <!-- Serif L — vertical stroke -->
  <rect x="72" y="22" width="14" height="118" fill="#c8951a"/>
  <!-- Top serif left -->
  <rect x="56" y="22" width="40" height="5" fill="#c8951a"/>
  <!-- Bottom foot -->
  <rect x="72" y="130" width="50" height="10" fill="#c8951a"/>
  <!-- Bottom-right serif -->
  <rect x="118" y="136" width="10" height="4" fill="#c8951a"/>

  <!-- Superscript 2 -->
  <text x="92" y="58" font-family="Georgia, 'Times New Roman', serif" font-size="28" font-style="italic" fill="#c8951a">2</text>

  <!-- Swoosh orbital stroke — main loop going left-down-right -->
  <path d="
    M 112, 48
    C 148, 52,  168, 75,  155, 100
    C 142, 125, 110, 140,  78, 140
    C 46,  140,  28, 126,  30, 108
    C 32,  92,   50,  82,  70,  84
    C 84,  86,   94,  94,  98, 104
    C 104, 116,  118, 128, 138, 140
    C 155, 150,  170, 155, 162, 162
  " fill="none" stroke="#c8951a" stroke-width="5.5" stroke-linecap="round" stroke-linejoin="round"/>
</svg>
